<svg width="36" height="34" viewBox="0 0 36 34" fill="none" xmlns="http://www.w3.org/2000/svg">
<path d="M20.7344 10.4375H15.7656C14.834 10.4375 14.1094 11.2656 14.1094 12.0938V31.9688C14.1094 32.9004 14.834 33.625 15.7656 33.625H20.7344C21.5625 33.625 22.3906 32.9004 22.3906 31.9688V12.0938C22.3906 11.2656 21.5625 10.4375 20.7344 10.4375ZM7.48438 20.375H2.51562C1.58398 20.375 0.859375 21.2031 0.859375 22.0312V31.9688C0.859375 32.9004 1.58398 33.625 2.51562 33.625H7.48438C8.3125 33.625 9.14062 32.9004 9.14062 31.9688V22.0312C9.14062 21.2031 8.3125 20.375 7.48438 20.375ZM33.9844 0.5H29.0156C28.084 0.5 27.3594 1.32812 27.3594 2.15625V31.9688C27.3594 32.9004 28.084 33.625 29.0156 33.625H33.9844C34.8125 33.625 35.6406 32.9004 35.6406 31.9688V2.15625C35.6406 1.32812 34.8125 0.5 33.9844 0.5Z" fill="white"/>
</svg>
