<svg width="32" height="37" viewBox="0 0 32 37" fill="none" xmlns="http://www.w3.org/2000/svg">
<path d="M27.1797 22.2266L28.8672 17.7969C29.1484 17.0938 28.6562 16.25 27.8125 16.25H24.7891C24.9297 15.7578 25 15.1953 25 14.5625C25 14.0703 24.9297 13.5781 24.7891 13.0859C27.6719 12.4531 29.5 11.3984 29.5 10.2734C29.5 9.14844 27.6016 8.09375 24.5781 7.39062C23.9453 5.07031 22.6797 2.60938 21.6953 1.41406C21.2734 0.851562 20.5703 0.5 19.9375 0.5C19.2344 0.5 19.0234 0.710938 16.9844 1.76562C16.0703 2.1875 15.2969 1.90625 14.9453 1.76562C12.8359 0.710938 12.6953 0.5 11.9922 0.5C11.3594 0.5 10.7266 0.851562 10.2344 1.41406C9.25 2.60938 7.98438 5 7.35156 7.39062C4.39844 8.09375 2.5 9.14844 2.5 10.2734C2.5 11.3984 4.25781 12.4531 7.14062 13.0859C7 13.5781 7 14.0703 7 14.5625C7 15.1953 7 15.7578 7.14062 16.25H4.1875C3.34375 16.25 2.85156 17.0938 3.13281 17.8672L4.96094 22.0859C2.14844 23.7031 0.25 26.7266 0.25 30.2422V33.4062C0.25 35.0938 1.65625 36.5 3.34375 36.5H28.5859C30.2734 36.5 31.75 35.0938 31.75 33.4062V30.2422C31.75 26.7969 29.9219 23.8438 27.1797 22.2266ZM9.25 14.5625C9.25 14.4219 9.25 14.2109 9.25 14.0703C9.32031 14.0703 9.60156 14.2812 9.67188 14.4219C9.95312 15.2656 10.1641 16.1797 10.7969 16.7422C11.3594 17.3047 14.1016 18.5 15.2969 14.9844C15.5078 14.4219 16.4219 14.4219 16.6328 14.9844C17.7578 18.3594 20.4297 17.4453 21.1328 16.7422C21.7656 16.1797 21.9766 15.2656 22.2578 14.4219C22.3281 14.2812 22.6094 14.0703 22.6797 14.0703C22.6797 14.2109 22.75 14.4219 22.75 14.5625C22.75 18.2891 19.7266 21.3125 16 21.3125C12.2734 21.3125 9.25 18.2891 9.25 14.5625ZM9.17969 9.28906C9.25 9.07812 10.0234 5.28125 11.9922 2.75C14.0312 3.80469 14.6641 4.22656 16 4.22656C17.2656 4.22656 17.8984 3.80469 19.9375 2.75V2.82031C21.9062 5.28125 22.75 9.07812 22.75 9.28906C24.2969 9.64062 25.2812 9.85156 26.3359 10.2734C24.6484 10.9766 21.0625 11.75 16 11.75C10.8672 11.75 7.28125 10.9766 5.59375 10.2734C6.64844 9.85156 7.70312 9.64062 9.17969 9.28906ZM3.34375 34.25C2.85156 34.25 2.5 33.8984 2.5 33.4062V30.2422C2.5 27.6406 3.83594 25.3203 6.08594 24.0547L7.84375 23L5.875 18.5H7.91406C8.26562 19.2031 12.4141 26.1641 12.4141 26.1641L10.2344 34.25H3.34375ZM12.625 34.25L14.875 25.8125L13.3281 23.1406C14.1719 23.4219 15.0156 23.5625 16 23.5625C16.9141 23.5625 17.7578 23.4219 18.6016 23.1406L17.125 25.8125L19.375 34.25H12.625ZM29.5 33.4062C29.5 33.8984 29.0781 34.25 28.5859 34.25H21.6953L19.5156 26.1641C19.5156 26.1641 23.6641 19.2031 24.0156 18.5H26.1953L24.4375 23.1406L26.0547 24.125C28.1641 25.4609 29.5 27.7109 29.5 30.2422V33.4062Z" fill="white"/>
</svg>
