<svg width="36" height="37" viewBox="0 0 36 37" fill="none" xmlns="http://www.w3.org/2000/svg">
<path d="M13.5 16.25C13.5 15.0547 12.4453 14 11.25 14H9C6.46875 14 4.5 16.0391 4.5 18.5V23C4.5 25.4609 6.46875 27.5 9 27.5H11.25C12.4453 27.5 13.5 26.5156 13.5 25.25V16.25ZM11.25 25.25H9C7.73438 25.25 6.75 24.2656 6.75 23V18.5C6.75 17.3047 7.73438 16.25 9 16.25H11.25V25.25ZM27 27.5C29.4609 27.5 31.5 25.4609 31.5 23V18.5C31.5 16.0391 29.4609 14 27 14H24.75C23.4844 14 22.5 15.0547 22.5 16.25V25.25C22.5 26.5156 23.4844 27.5 24.75 27.5H27ZM24.75 16.25H27C28.1953 16.25 29.25 17.3047 29.25 18.5V23C29.25 24.2656 28.1953 25.25 27 25.25H24.75V16.25ZM18 0.5C7.94531 0.5 0.210938 8.79688 0 18.5V20.1875C0 20.5391 0.210938 20.75 0.5625 20.75H1.6875C1.96875 20.75 2.25 20.5391 2.25 20.1875V18.5C2.46094 10.0625 9.21094 2.75 18 2.75C26.6484 2.75 33.75 9.85156 33.75 18.5V30.875C33.75 32.7734 32.2031 34.25 30.375 34.25H24.5391C24.6094 33.8984 24.75 33.5469 24.75 33.125C24.75 31.2969 23.2031 29.75 21.375 29.75H16.875C14.9766 29.75 13.5 31.2969 13.5 33.125C13.5 35.0234 14.9766 36.5 16.875 36.5H30.375C33.4688 36.5 36 34.0391 36 30.875V18.5C36 8.58594 27.9141 0.5 18 0.5ZM21.375 34.25H16.875C16.2422 34.25 15.75 33.7578 15.75 33.125C15.75 32.5625 16.2422 32 16.875 32H21.375C21.9375 32 22.5 32.5625 22.5 33.125C22.5 33.7578 21.9375 34.25 21.375 34.25Z" fill="white"/>
</svg>
